<svg width="169" height="64" viewBox="0 0 169 64" fill="none" xmlns="http://www.w3.org/2000/svg">
<g id="Caminho" opacity="0.41644">
<g id="Group 37">
<g id="Group 4 Copy">
<g id="Page 1" opacity="0.643003">
<path id="Fill 79" fill-rule="evenodd" clip-rule="evenodd" d="M115.567 43.6321L96.5887 15.149L77.6097 43.6321H115.567Z" fill="#7A9FBC"/>
<path id="Fill 81" fill-rule="evenodd" clip-rule="evenodd" d="M115.304 43.6321H96.5885V15.149L115.304 43.6321Z" fill="#598CBD"/>
<path id="Fill 83" fill-rule="evenodd" clip-rule="evenodd" d="M96.5884 15.149V23.804C96.3905 24.4567 96.1762 25.0935 95.3788 25.0935C93.8337 25.0935 94.9925 22.5264 93.5763 22.7035C92.3464 22.8572 90.4374 25.4133 88.9442 26.4895L96.5884 15.149Z" fill="#C6D9E4"/>
<path id="Fill 85" fill-rule="evenodd" clip-rule="evenodd" d="M101.07 22.1653C100.485 21.782 100.031 21.5693 99.8524 21.6774C99.1163 22.1225 100.098 23.3686 99.1163 23.7247C98.1347 24.0808 98.7481 22.2115 97.5213 22.4784C96.9279 22.6077 96.7652 23.2368 96.5885 23.8522V15.149L101.07 22.1653Z" fill="#9EB9DD"/>
<path id="Fill 87" fill-rule="evenodd" clip-rule="evenodd" d="M76.1829 49.6302C69.4739 43.6894 63.8061 38.5116 56.756 30.4959C54.6944 28.1519 51.9754 24.5811 50.1551 24.2332C45.267 23.2989 40.8537 28.1135 36.8711 32.7149C32.5263 37.735 28.1814 42.7551 23.8365 47.7752C31.5421 51.2396 39.7113 48.7468 47.6948 49.1025C56.0316 49.4738 64.2116 52.9732 72.5342 53.8555C73.7548 53.9849 75.0732 54.0155 76.0842 52.8798C77.0953 51.744 77.4947 48.9848 76.5367 47.7301" fill="#CCEFEA"/>
<path id="Fill 89" fill-rule="evenodd" clip-rule="evenodd" d="M36.9317 32.644C40.7648 28.2709 45.0508 23.702 49.6687 24.1458V49.0336C49.0484 48.9744 48.4275 48.9281 47.8057 48.9007C39.7851 48.5479 31.5779 51.0208 23.8365 47.5841C28.2015 42.6041 32.5667 37.6241 36.9317 32.644Z" fill="#E2F8F7"/>
<path id="Fill 91" fill-rule="evenodd" clip-rule="evenodd" d="M88.9442 36.7752L71.2835 10.1382L53.6226 36.7752H88.9442Z" fill="#7A9FBC"/>
<path id="Fill 93" fill-rule="evenodd" clip-rule="evenodd" d="M88.9444 36.7752H71.2836V10.1382L88.9444 36.7752Z" fill="#598CBD"/>
<path id="Fill 95" fill-rule="evenodd" clip-rule="evenodd" d="M71.2834 10.1382V18.1893C71.0991 18.7965 70.8995 19.3889 70.1571 19.3889C68.7186 19.3889 69.7974 17.0009 68.4789 17.1656C67.3338 17.3086 65.5565 19.6863 64.1663 20.6875L71.2834 10.1382Z" fill="#C6D9E4"/>
<path id="Fill 97" fill-rule="evenodd" clip-rule="evenodd" d="M75.5011 16.9419C74.951 16.5702 74.5234 16.364 74.3555 16.4687C73.6627 16.9004 74.5862 18.1087 73.6627 18.454C72.7388 18.7993 73.3161 16.9867 72.1614 17.2455C71.603 17.3708 71.4499 17.981 71.2836 18.5776V10.1382L75.5011 16.9419Z" fill="#9EB9DD"/>
<path id="Fill 99" fill-rule="evenodd" clip-rule="evenodd" d="M53.0955 63.4121L30.9538 29.918L8.81171 63.4121H53.0955Z" fill="#7A9FBC"/>
<path id="Fill 101" fill-rule="evenodd" clip-rule="evenodd" d="M53.0955 63.4121H30.9536V29.918L53.0955 63.4121Z" fill="#598CBD"/>
<path id="Fill 103" fill-rule="evenodd" clip-rule="evenodd" d="M30.9535 29.918V40.1832C30.7214 40.9574 30.4702 41.7127 29.5353 41.7127C27.7238 41.7127 29.0824 38.668 27.422 38.878C25.98 39.0603 23.742 42.0919 21.9913 43.3684L30.9535 29.918Z" fill="#C6D9E4"/>
<path id="Fill 105" fill-rule="evenodd" clip-rule="evenodd" d="M36.4891 38.21C35.7671 37.757 35.2058 37.5056 34.9854 37.6334C34.0761 38.1595 35.2884 39.6321 34.0761 40.053C32.8636 40.4737 33.6213 38.2646 32.1058 38.5801C31.3729 38.7328 31.1718 39.4764 30.9536 40.2036V29.918L36.4891 38.21Z" fill="#9EB9DD"/>
<path id="Fill 111" fill-rule="evenodd" clip-rule="evenodd" d="M62.8484 41.6541C62.8484 43.7661 71.5225 45.4783 82.2227 45.4783C92.9226 45.4783 101.597 43.7661 101.597 41.6541C101.597 39.5421 92.9226 37.8301 82.2227 37.8301C71.5225 37.8301 62.8484 39.5421 62.8484 41.6541Z" fill="#7BA0D1"/>
<path id="Fill 113" fill-rule="evenodd" clip-rule="evenodd" d="M101.597 41.2586L82.2226 0.116249L62.8484 41.2586H101.597Z" fill="#7A9FBC"/>
<path id="Fill 115" fill-rule="evenodd" clip-rule="evenodd" d="M101.597 41.2586H82.3544V0.116249L101.597 41.2586Z" fill="#598CBD"/>
<path id="Fill 117" fill-rule="evenodd" clip-rule="evenodd" d="M81.8272 0.116249V12.7968C81.6293 13.7531 81.415 14.6861 80.6176 14.6861C79.0725 14.6861 80.2312 10.9251 78.815 11.1845C77.5852 11.4097 75.6759 15.1547 74.183 16.7314L81.8272 0.116249Z" fill="#DEFAFF"/>
<path id="Fill 119" fill-rule="evenodd" clip-rule="evenodd" d="M87.0991 10.3218C86.4801 9.76443 85.9992 9.45494 85.81 9.61227C85.0307 10.2596 86.0698 12.0722 85.0307 12.59C83.9915 13.1079 84.641 10.3891 83.3421 10.7776C82.7137 10.9653 82.5414 11.8806 82.3544 12.7754V0.116249L87.0991 10.3218Z" fill="#BCD2DF"/>
<path id="Fill 121" fill-rule="evenodd" clip-rule="evenodd" d="M106.385 46.4997C98.8456 39.8754 92.4764 34.1019 84.5537 25.1641C82.237 22.5505 79.1815 18.5688 77.1359 18.1808C71.6428 17.1392 66.6833 22.5077 62.2079 27.6385C57.3253 33.2361 52.4426 38.8337 47.56 44.4313C56.2193 48.2942 65.3996 45.5147 74.371 45.9113C83.7396 46.3254 92.932 50.2273 102.285 51.2111C103.656 51.3554 105.138 51.3895 106.274 50.1231C107.41 48.8567 107.859 45.7801 106.783 44.381" fill="#E2F8F7"/>
<path id="Fill 123" fill-rule="evenodd" clip-rule="evenodd" d="M62.2587 27.6442C66.5611 22.7245 71.372 17.5844 76.5554 18.0838V46.0825C75.8591 46.0159 75.1621 45.9638 74.4641 45.933C65.4615 45.5361 56.2493 48.3181 47.56 44.4518C52.4596 38.8493 57.3592 33.2467 62.2587 27.6442Z" fill="#CCEFEA"/>
<path id="Fill 125" fill-rule="evenodd" clip-rule="evenodd" d="M129.693 49.3665C122.983 43.4256 117.316 38.2479 110.266 30.2322C108.204 27.8882 105.485 24.3173 103.665 23.9694C98.7766 23.0352 94.3633 27.8498 90.3807 32.4512C86.0359 37.4713 81.691 42.4914 77.3461 47.5115C85.0517 50.9759 93.2209 48.4831 101.204 48.8388C109.541 49.2101 117.721 52.7095 126.044 53.5918C127.264 53.7212 128.583 53.7518 129.594 52.616C130.605 51.4803 131.004 48.7211 130.046 47.4664" fill="#E2F8F7"/>
<path id="Fill 127" fill-rule="evenodd" clip-rule="evenodd" d="M90.4413 32.3803C94.2744 28.0072 98.5604 23.4383 103.178 23.8821V48.7699C102.558 48.7107 101.937 48.6644 101.315 48.637C93.2947 48.2842 85.0874 50.7571 77.3461 47.3204C81.7111 42.3404 86.0762 37.3604 90.4413 32.3803Z" fill="#CCEFEA"/>
<path id="Fill 129" fill-rule="evenodd" clip-rule="evenodd" d="M76.1252 24.2209C75.6736 24.1561 75.3209 23.7088 74.866 23.7465C74.5669 23.7713 74.3318 24.0022 74.0484 24.0984C73.5232 24.2765 72.9509 23.9676 72.397 24.0187C71.8459 24.0696 71.3345 24.4743 70.7933 24.3607C70.565 24.3127 70.3682 24.1767 70.1521 24.0908C69.5577 23.8546 68.8746 24.0136 68.2463 23.8841C67.7375 23.7791 67.2309 23.485 66.7315 23.626C66.4673 23.7005 66.2551 23.8875 66.0531 24.0688C65.8821 24.2222 65.711 24.3757 65.54 24.5291C65.5147 24.5518 65.4878 24.5776 65.4847 24.6109C65.4794 24.6702 65.5488 24.7067 65.6071 24.7257C67.2692 25.2675 69.0792 24.8046 70.8327 24.8047C72.2684 24.8048 73.6864 25.1197 75.1214 25.1676C75.3752 25.1761 75.6378 25.1746 75.8708 25.0765C76.1036 24.9784 76.3004 24.7596 76.2915 24.5134C76.2877 24.4078 76.2434 24.3007 76.1585 24.2345" fill="#CCEFEA"/>
<path id="Fill 131" fill-rule="evenodd" clip-rule="evenodd" d="M103.969 62.7527C103.969 64.719 112.171 66.3132 122.289 66.3132C132.406 66.3132 140.609 64.719 140.609 62.7527C140.609 60.7864 132.406 59.1924 122.289 59.1924C112.171 59.1924 103.969 60.7864 103.969 62.7527Z" fill="#7BA0D1"/>
<path id="Fill 133" fill-rule="evenodd" clip-rule="evenodd" d="M140.609 62.8846L122.289 24.1159L103.969 62.8846H140.609Z" fill="#7A9FBC"/>
<path id="Fill 135" fill-rule="evenodd" clip-rule="evenodd" d="M140.082 62.8846H122.157V24.1159L140.082 62.8846Z" fill="#598CBD"/>
<path id="Fill 137" fill-rule="evenodd" clip-rule="evenodd" d="M122.157 24.1159V36.1926C121.966 37.1034 121.759 37.9919 120.989 37.9919C119.498 37.9919 120.616 34.41 119.249 34.6571C118.061 34.8716 116.218 38.4382 114.777 39.9398L122.157 24.1159Z" fill="#DEFAFF"/>
<path id="Fill 139" fill-rule="evenodd" clip-rule="evenodd" d="M126.638 33.6836C126.054 33.1611 125.6 32.8709 125.421 33.0184C124.685 33.6253 125.666 35.3245 124.685 35.81C123.703 36.2955 124.317 33.7467 123.09 34.1109C122.497 34.2869 122.334 35.1449 122.157 35.9839V24.1159L126.638 33.6836Z" fill="#BCD2DF"/>
<path id="Fill 141" fill-rule="evenodd" clip-rule="evenodd" d="M78.6639 65.3901C78.6639 67.3564 86.866 68.9506 96.9839 68.9506C107.101 68.9506 115.304 67.3564 115.304 65.3901C115.304 63.4238 107.101 61.8298 96.9839 61.8298C86.866 61.8298 78.6639 63.4238 78.6639 65.3901Z" fill="#7BA0D1"/>
<path id="Fill 143" fill-rule="evenodd" clip-rule="evenodd" d="M115.304 65.5219L96.9838 26.7532L78.6639 65.5219H115.304Z" fill="#98B4DB"/>
<path id="Fill 145" fill-rule="evenodd" clip-rule="evenodd" d="M115.304 65.5219H97.3792V26.7532L115.304 65.5219Z" fill="#598CBD"/>
<path id="Fill 147" fill-rule="evenodd" clip-rule="evenodd" d="M97.3794 26.7532V38.8299C97.1884 39.7407 96.9815 40.6292 96.2115 40.6292C94.7198 40.6292 95.8385 37.0474 94.4711 37.2944C93.2837 37.5089 91.4403 41.0756 89.9988 42.5772L97.3794 26.7532Z" fill="#DEFAFF"/>
<path id="Fill 149" fill-rule="evenodd" clip-rule="evenodd" d="M101.86 36.3209C101.276 35.7984 100.822 35.5082 100.643 35.6557C99.9068 36.2626 100.888 37.9619 99.9068 38.4473C98.9254 38.9328 99.5388 36.384 98.312 36.7482C97.7185 36.9242 97.5558 37.7823 97.3792 38.6212V26.7532L101.86 36.3209Z" fill="#BCD2DF"/>
<path id="Fill 151" fill-rule="evenodd" clip-rule="evenodd" d="M64.6936 40.7312C64.6936 41.8965 72.6008 42.841 82.3546 42.841C92.1082 42.841 100.015 41.8965 100.015 40.7312C100.015 39.5661 92.1082 38.6213 82.3546 38.6213C72.6008 38.6213 64.6936 39.5661 64.6936 40.7312Z" fill="#9CB8DC"/>
<path id="Fill 153" fill-rule="evenodd" clip-rule="evenodd" d="M100.015 40.7312L82.3544 19.1051L64.6936 40.7312H100.015Z" fill="#7A9FBC"/>
<path id="Fill 155" fill-rule="evenodd" clip-rule="evenodd" d="M100.279 40.7312H82.618V19.1051L100.279 40.7312Z" fill="#598CBD"/>
<path id="Fill 157" fill-rule="evenodd" clip-rule="evenodd" d="M82.0908 19.1051V28.371C81.8664 28.7804 81.5306 29.0921 80.948 29.1246C79.1465 29.225 80.7978 26.06 79.6969 26.06C78.596 26.06 78.4458 28.4715 77.2449 28.5721C76.1673 28.6621 76.9416 26.8933 76.0281 26.8913L82.0908 19.1051Z" fill="#F7FEFF"/>
<path id="Fill 159" fill-rule="evenodd" clip-rule="evenodd" d="M88.1535 26.07C87.7787 26.0965 87.5077 26.216 87.4672 26.4951C87.3142 27.5477 88.1296 28.7508 86.8047 29.1016C85.4797 29.4525 84.8683 26.044 83.7982 26.1443C83.0741 26.212 83.0957 27.4953 82.618 28.3497V19.1051L88.1535 26.07Z" fill="#D6E4EC"/>
<path id="Combined Shape" fill-rule="evenodd" clip-rule="evenodd" d="M-0.150452 66.0495C-0.150452 67.6518 14.6608 68.9505 32.9309 68.9505C38.7012 68.9505 44.1265 68.8209 48.8491 68.5932C54.4785 68.9821 61.5836 69.2142 69.3067 69.2142C87.5765 69.2142 102.387 67.9155 102.387 66.3132C102.387 64.7112 87.5765 63.4121 69.3067 63.4121C63.5361 63.4121 58.1105 63.5417 53.3878 63.7695C47.7585 63.3805 40.6537 63.1483 32.9309 63.1483C14.6608 63.1483 -0.150452 64.4475 -0.150452 66.0495ZM102.124 67.6319C102.124 69.2342 116.935 70.5329 135.205 70.5329C153.475 70.5329 168.286 69.2342 168.286 67.6319C168.286 66.03 153.475 64.7308 135.205 64.7308C116.935 64.7308 102.124 66.03 102.124 67.6319Z" fill="#9CB8DC"/>
<path id="Fill 163" fill-rule="evenodd" clip-rule="evenodd" d="M167.495 68.1593L138.5 32.8191L109.505 68.1593H167.495Z" fill="#7A9FBC"/>
<path id="Fill 165" fill-rule="evenodd" clip-rule="evenodd" d="M167.759 68.1593H138.764V32.8191L167.759 68.1593Z" fill="#598CBD"/>
<path id="Fill 167" fill-rule="evenodd" clip-rule="evenodd" d="M138.764 32.8191V47.6933C138.383 48.3505 137.814 48.851 136.826 48.903C133.771 49.0643 136.571 43.9835 134.704 43.9835C132.837 43.9835 132.583 47.8548 130.546 48.0161C128.719 48.1606 130.032 45.3213 128.483 45.318L138.764 32.8191Z" fill="#F7FEFF"/>
<path id="Fill 169" fill-rule="evenodd" clip-rule="evenodd" d="M147.989 43.9997C147.365 44.042 146.913 44.234 146.846 44.682C146.591 46.3718 147.95 48.3029 145.742 48.8661C143.533 49.4294 142.514 43.9579 140.731 44.1188C139.524 44.2276 139.56 46.2876 138.764 47.6592V32.8191L147.989 43.9997Z" fill="#D6E4EC"/>
<path id="Fill 171" fill-rule="evenodd" clip-rule="evenodd" d="M123.63 62.8168C116.921 56.876 111.253 51.6983 104.203 43.6825C102.141 41.3386 99.4225 37.7677 97.6023 37.4198C92.7141 36.4856 88.3008 41.3002 84.3182 45.9016C79.9734 50.9217 75.6285 55.9418 71.2836 60.9618C78.9892 64.4262 87.1584 61.9335 95.1419 62.2891C103.479 62.6604 111.659 66.1599 119.981 67.0421C121.202 67.1715 122.52 67.2021 123.531 66.0664C124.542 64.9306 124.942 62.1715 123.984 60.9167" fill="#E2F8F7"/>
<path id="Fill 173" fill-rule="evenodd" clip-rule="evenodd" d="M84.3788 45.8307C88.2119 41.4576 92.4979 36.8886 97.1158 37.3325V62.2202C96.4955 62.1611 95.8746 62.1147 95.2527 62.0874C87.2322 61.7346 79.0249 64.2074 71.2836 60.7707C75.6486 55.7907 80.0137 50.8107 84.3788 45.8307Z" fill="#CCEFEA"/>
<path id="Fill 175" fill-rule="evenodd" clip-rule="evenodd" d="M43.3425 43.1045C43.3425 44.4154 51.9578 45.4783 62.5849 45.4783C73.2121 45.4783 81.8273 44.4154 81.8273 43.1045C81.8273 41.7936 73.2121 40.7311 62.5849 40.7311C51.9578 40.7311 43.3425 41.7936 43.3425 43.1045Z" fill="#98B4DB"/>
<path id="Fill 177" fill-rule="evenodd" clip-rule="evenodd" d="M81.8273 42.841L62.5848 17.5227L43.3425 42.841H81.8273Z" fill="#7A9FBC"/>
<path id="Fill 179" fill-rule="evenodd" clip-rule="evenodd" d="M81.5636 42.841H62.5848V17.5227L81.5636 42.841Z" fill="#598CBD"/>
<path id="Fill 181" fill-rule="evenodd" clip-rule="evenodd" d="M62.5848 17.5227V25.5738C62.387 26.181 62.1728 26.7736 61.3753 26.7736C59.8302 26.7736 60.9888 24.3855 59.5727 24.55C58.343 24.6932 56.4335 27.071 54.9406 28.072L62.5848 17.5227Z" fill="#DEFAFF"/>
<path id="Fill 183" fill-rule="evenodd" clip-rule="evenodd" d="M67.0659 23.9012C66.4816 23.5528 66.0274 23.3593 65.8485 23.4576C65.1125 23.8623 66.094 24.9952 65.1125 25.3189C64.1312 25.6425 64.7445 23.9432 63.5178 24.186C62.9242 24.3034 62.7616 24.8754 62.5848 25.4346V17.5227L67.0659 23.9012Z" fill="#BCD2DF"/>
<path id="Fill 187" fill-rule="evenodd" clip-rule="evenodd" d="M132.964 66.5769L109.636 35.4565L86.3083 66.5769H132.964Z" fill="#7A9FBC"/>
<path id="Fill 189" fill-rule="evenodd" clip-rule="evenodd" d="M133.228 66.5769H109.768V35.4565L133.228 66.5769Z" fill="#598CBD"/>
<path id="Fill 191" fill-rule="evenodd" clip-rule="evenodd" d="M109.768 35.4565V45.1179C109.522 45.8465 109.256 46.5576 108.267 46.5576C106.348 46.5576 107.787 43.6918 106.029 43.8893C104.502 44.0611 102.132 46.9144 100.279 48.1156L109.768 35.4565Z" fill="#DEFAFF"/>
<path id="Fill 193" fill-rule="evenodd" clip-rule="evenodd" d="M115.567 43.1106C114.811 42.6927 114.223 42.4604 113.992 42.5784C113.039 43.064 114.309 44.4235 113.039 44.812C111.769 45.2003 112.563 43.1611 110.976 43.4524C110.208 43.5933 109.997 44.2797 109.768 44.9508V35.4565L115.567 43.1106Z" fill="#BCD2DF"/>
<path id="Fill 195" fill-rule="evenodd" clip-rule="evenodd" d="M79.7185 55.2364L63.6394 30.7093L47.56 55.2364H79.7185Z" fill="#7A9FBC"/>
<path id="Fill 197" fill-rule="evenodd" clip-rule="evenodd" d="M79.9821 55.2364H63.9028V30.7093L79.9821 55.2364Z" fill="#598CBD"/>
<path id="Fill 199" fill-rule="evenodd" clip-rule="evenodd" d="M63.6391 30.7093V38.3579C63.4752 38.9347 63.2979 39.4975 62.6379 39.4975C61.3593 39.4975 62.3183 37.2289 61.1462 37.3854C60.1284 37.5212 58.5486 39.78 57.3128 40.7311L63.6391 30.7093Z" fill="#C6D9E4"/>
<path id="Fill 201" fill-rule="evenodd" clip-rule="evenodd" d="M67.8567 36.6625C67.3411 36.3373 66.9401 36.1568 66.7827 36.2485C66.1332 36.6263 66.9991 37.6835 66.1332 37.9857C65.2671 38.2878 65.8083 36.7017 64.7259 36.9282C64.2023 37.0379 64.0587 37.5717 63.9028 38.0938V30.7093L67.8567 36.6625Z" fill="#9EB9DD"/>
<path id="Fill 203" fill-rule="evenodd" clip-rule="evenodd" d="M83.6415 46.1208C80.9107 44.3011 78.1799 42.4814 75.4491 40.6617C73.8654 39.6063 72.1902 38.5182 70.2988 38.3743C67.217 38.1398 64.5709 40.4215 62.3139 42.5558C59.5047 45.2125 56.6954 47.869 53.8862 50.5257C55.0365 51.3784 56.5114 51.6146 57.9266 51.7952C65.0504 52.7043 72.2701 52.8431 79.423 52.2083C80.3547 52.1256 81.3103 52.0227 82.1434 51.5928C82.9765 51.1629 83.6712 50.3301 83.6723 49.3845C83.6738 48.1871 82.6155 46.9688 83.1831 45.9178" fill="#E2F8F7"/>
<path id="Fill 205" fill-rule="evenodd" clip-rule="evenodd" d="M62.2934 42.5559C64.5375 40.4281 67.1676 38.1546 70.229 38.3721V52.5992C66.1138 52.586 61.9995 52.3193 57.9168 51.7969C56.505 51.6163 55.0337 51.3801 53.8862 50.5272C56.6886 47.8701 59.491 45.213 62.2934 42.5559Z" fill="#CCEFEA"/>
<path id="Fill 209" fill-rule="evenodd" clip-rule="evenodd" d="M78.1368 66.3132L49.1414 30.973L20.1461 66.3132H78.1368Z" fill="#7A9FBC"/>
<path id="Fill 211" fill-rule="evenodd" clip-rule="evenodd" d="M78.137 66.3132H49.1416V30.973L78.137 66.3132Z" fill="#598CBD"/>
<path id="Fill 213" fill-rule="evenodd" clip-rule="evenodd" d="M49.1415 30.973V45.8473C48.761 46.5044 48.1916 47.0049 47.2036 47.0569C44.149 47.2183 46.949 42.1375 45.0823 42.1375C43.2155 42.1375 42.9609 46.0087 40.9245 46.17C39.0974 46.3145 40.4102 43.4752 38.8613 43.4719L49.1415 30.973Z" fill="#F7FEFF"/>
<path id="Fill 215" fill-rule="evenodd" clip-rule="evenodd" d="M58.3674 42.1536C57.7428 42.196 57.2911 42.3879 57.2236 42.8359C56.9687 44.5257 58.3276 46.4568 56.1195 47.02C53.9112 47.5833 52.8922 42.1118 51.1086 42.2728C49.9019 42.3816 49.9379 44.4416 49.1416 45.8131V30.973L58.3674 42.1536Z" fill="#D6E4EC"/>
<path id="Fill 219" fill-rule="evenodd" clip-rule="evenodd" d="M109.768 66.577L80.7728 31.2368L51.7775 66.577H109.768Z" fill="#7A9FBC"/>
<path id="Fill 221" fill-rule="evenodd" clip-rule="evenodd" d="M110.032 66.577H81.0364V31.2368L110.032 66.577Z" fill="#598CBD"/>
<path id="Fill 223" fill-rule="evenodd" clip-rule="evenodd" d="M81.0364 31.2368V46.111C80.6559 46.7682 80.0865 47.2687 79.0985 47.3207C76.0439 47.482 78.8439 42.4012 76.9772 42.4012C75.1104 42.4012 74.8558 46.2725 72.8194 46.4338C70.9923 46.5783 72.3051 43.739 70.7562 43.7357L81.0364 31.2368Z" fill="#F7FEFF"/>
<path id="Fill 225" fill-rule="evenodd" clip-rule="evenodd" d="M90.2622 42.4174C89.6376 42.4597 89.1859 42.6517 89.1184 43.0997C88.8635 44.7895 90.2224 46.7206 88.0143 47.2838C85.806 47.8471 84.787 42.3756 83.0034 42.5365C81.7967 42.6453 81.8326 44.7054 81.0364 46.0769V31.2368L90.2622 42.4174Z" fill="#D6E4EC"/>
<path id="Fill 227" fill-rule="evenodd" clip-rule="evenodd" d="M119.785 19.521C119.785 18.5856 120.759 17.8271 121.962 17.8271C122.204 17.8271 122.437 17.8593 122.655 17.9164C122.697 16.3822 124.18 15.149 126.004 15.149C127.74 15.149 129.168 16.265 129.338 17.695C129.555 17.6253 129.792 17.5863 130.041 17.5863C130.818 17.5863 131.481 17.9627 131.749 18.4934C131.904 18.4593 132.066 18.4398 132.235 18.4398C133.22 18.4398 134.019 19.061 134.019 19.8274C134.019 20.5936 133.22 21.2148 132.235 21.2148C132.194 21.2148 132.154 21.2121 132.113 21.21C132.081 21.2131 132.048 21.2148 132.015 21.2148H121.721C121.595 21.2148 121.475 21.1909 121.364 21.1487C120.453 20.9465 119.785 20.2952 119.785 19.521Z" fill="white"/>
<path id="Fill 229" fill-rule="evenodd" clip-rule="evenodd" d="M101.943 13.2979C100.865 13.2365 100.015 12.5331 100.015 11.6739C100.015 10.8714 100.757 10.2049 101.732 10.0702C101.818 9.5758 102.342 9.19528 102.978 9.19528C103.075 9.19528 103.168 9.20474 103.259 9.22131C103.597 7.93071 104.839 6.97329 106.32 6.97329C107.942 6.97329 109.278 8.12295 109.453 9.60101C109.518 9.59541 109.584 9.59226 109.651 9.59226C110.571 9.59226 111.334 10.1284 111.492 10.8343C112.299 10.8901 112.931 11.4199 112.931 12.0658C112.931 12.749 112.224 13.3029 111.351 13.3029C111.315 13.3029 111.279 13.3005 111.243 13.2987C111.215 13.3014 111.185 13.3029 111.156 13.3029H102.034C102.02 13.3029 102.006 13.3015 101.992 13.3008C101.988 13.3007 101.984 13.3004 101.98 13.3001C101.967 13.2994 101.955 13.2993 101.943 13.2979Z" fill="white"/>
<path id="Fill 231" fill-rule="evenodd" clip-rule="evenodd" d="M50.6871 16.463C49.6757 16.404 48.8779 15.7299 48.8779 14.9065C48.8779 14.1376 49.5737 13.4988 50.4895 13.3695C50.5703 12.8959 51.0624 12.5312 51.6595 12.5312C51.7501 12.5312 51.8378 12.5403 51.9227 12.5562C52.2406 11.3193 53.4063 10.4018 54.7963 10.4018C56.3197 10.4018 57.5736 11.5035 57.7375 12.92C57.7988 12.9147 57.8608 12.9117 57.9239 12.9117C58.7873 12.9117 59.504 13.4255 59.652 14.102C60.4093 14.1555 61.0033 14.6631 61.0033 15.2822C61.0033 15.9369 60.3392 16.4676 59.52 16.4676C59.4857 16.4676 59.4521 16.4654 59.4184 16.4636C59.3914 16.4663 59.3642 16.4676 59.3367 16.4676H50.7731C50.7599 16.4676 50.7471 16.4663 50.734 16.4657C50.7299 16.4656 50.7259 16.4653 50.7219 16.465C50.7106 16.4644 50.6986 16.4643 50.6871 16.463Z" fill="white"/>
</g>
</g>
</g>
</g>
</svg>
